<svg width="295" height="217" viewBox="0 0 295 217" fill="none" xmlns="http://www.w3.org/2000/svg">
<g clip-path="url(#clip0_2435_718)">
<path d="M137.993 156.145C137.818 156.23 137.648 156.312 137.473 156.401C135.139 157.555 132.901 158.896 130.783 160.41C130.617 160.524 130.45 160.646 130.288 160.764C125.228 164.462 120.897 169.068 117.517 174.348C116.753 175.534 116.047 176.756 115.389 178.004C114.886 178.97 114.413 179.953 113.969 180.953C112.3 184.743 110.814 189.069 107.53 191.392C107.178 191.646 106.806 191.872 106.418 192.067C106.385 192.083 106.349 192.099 106.316 192.115C106.298 189.988 105.974 187.875 105.354 185.839C105.253 185.498 105.139 185.157 105.018 184.824C104.961 184.665 104.904 184.507 104.839 184.353C104.435 183.284 103.942 182.251 103.365 181.265C101.721 178.364 99.3296 175.957 96.4397 174.295C95.6067 176.362 94.546 178.329 93.2773 180.161C94.2355 178.146 95.2748 176.18 96.4155 174.279C96.4427 174.226 96.4739 174.176 96.5089 174.128C96.6794 173.836 96.858 173.547 97.0365 173.259C99.7907 168.728 103.286 164.692 107.376 161.32C110.208 159.046 113.381 157.234 116.778 155.95C123.517 153.403 130.998 153.037 137.502 155.922C137.668 155.995 137.83 156.068 137.993 156.145Z" fill="#F0F0F0"/>
<path d="M137.924 156.365C137.773 156.377 137.623 156.389 137.473 156.402C134.309 156.666 131.185 157.281 128.157 158.234C128.006 158.282 127.852 158.331 127.698 158.38C123.505 159.741 119.547 161.743 115.966 164.315C115.929 164.339 115.889 164.367 115.852 164.396C115.02 165.001 114.209 165.638 113.42 166.305C111.906 167.527 110.595 168.982 109.536 170.615C108.701 171.983 108.196 173.527 108.062 175.124C108.046 175.282 108.034 175.445 108.021 175.603C108.017 175.733 108.009 175.859 108.005 175.989C107.969 177.208 108.025 178.447 107.908 179.661C107.861 180.215 107.763 180.763 107.615 181.299C107.323 182.334 106.763 183.274 105.992 184.024C105.692 184.32 105.366 184.588 105.017 184.825C104.961 184.666 104.904 184.508 104.839 184.353C105.183 184.114 105.504 183.842 105.797 183.541C106.34 182.984 106.757 182.316 107.019 181.583C107.216 181.011 107.347 180.418 107.408 179.816C107.547 178.622 107.49 177.395 107.518 176.205C107.526 175.896 107.542 175.591 107.567 175.291C107.667 173.752 108.095 172.252 108.821 170.891C109.794 169.21 111.046 167.707 112.523 166.447C113.449 165.619 114.417 164.838 115.422 164.107C115.552 164.01 115.682 163.913 115.816 163.823C122.211 159.302 129.698 156.574 137.502 155.922C137.652 155.906 137.798 155.898 137.948 155.886C138.257 155.861 138.232 156.345 137.924 156.365Z" fill="white"/>
<path d="M115.538 164.302C114.722 163.008 114.392 161.465 114.607 159.95C114.823 158.435 115.57 157.046 116.714 156.031C116.946 155.826 117.275 156.178 117.043 156.382C115.975 157.326 115.279 158.62 115.082 160.031C114.884 161.443 115.197 162.878 115.964 164.079C116.13 164.34 115.703 164.562 115.538 164.302Z" fill="white"/>
<path d="M107.916 175.091C110.96 175.809 114.161 175.352 116.883 173.813C117.153 173.66 117.375 174.087 117.106 174.239C114.271 175.836 110.938 176.304 107.773 175.55C107.471 175.478 107.616 175.019 107.916 175.091Z" fill="white"/>
<path d="M128.098 158.094C128.31 158.661 128.659 159.166 129.114 159.565C129.568 159.963 130.115 160.242 130.704 160.377C131.007 160.445 130.861 160.904 130.561 160.837C129.91 160.685 129.307 160.376 128.803 159.936C128.3 159.497 127.912 158.942 127.672 158.318C127.645 158.261 127.64 158.195 127.659 158.135C127.678 158.075 127.719 158.024 127.774 157.993C127.83 157.964 127.896 157.958 127.957 157.977C128.018 157.996 128.069 158.038 128.098 158.094Z" fill="white"/>
<path d="M147.139 191.97C146.952 191.934 146.765 191.897 146.579 191.869L146.574 191.865H146.567C144.011 191.374 141.419 191.096 138.817 191.032H138.813C138.61 191.024 138.411 191.016 138.212 191.016H138.208C131.943 190.918 125.714 191.987 119.839 194.168C119.831 194.172 119.827 194.172 119.818 194.176C117.479 195.044 115.21 196.091 113.031 197.308C110.705 198.604 108.31 200.127 105.825 201.013C105.328 201.195 104.819 201.347 104.303 201.468C104.425 201.208 104.542 200.944 104.652 200.68C105.462 198.742 105.983 196.696 106.199 194.607C106.219 194.432 106.235 194.257 106.248 194.078C106.3 193.429 106.325 192.77 106.316 192.116C106.298 189.989 105.974 187.876 105.354 185.84C105.253 185.499 105.139 185.158 105.018 184.825C104.961 184.666 104.904 184.508 104.839 184.354C104.435 183.285 103.942 182.252 103.365 181.266C103.735 181.116 104.108 180.97 104.482 180.832C105.448 180.466 106.426 180.129 107.408 179.816H107.413C107.575 179.763 107.742 179.711 107.908 179.662C110.353 178.908 112.855 178.354 115.39 178.005C116.778 177.817 118.175 177.7 119.575 177.655C123.194 177.546 126.808 178.008 130.284 179.024C130.292 179.028 130.3 179.028 130.308 179.032C137.226 181.055 143.416 185.272 146.879 191.495C146.968 191.653 147.054 191.808 147.139 191.97Z" fill="#F0F0F0"/>
<path d="M146.952 192.104C146.826 192.023 146.704 191.945 146.578 191.868L146.574 191.864C143.888 190.168 141.022 188.776 138.029 187.713C137.879 187.656 137.724 187.603 137.574 187.554C133.403 186.111 129.033 185.324 124.62 185.223C124.572 185.218 124.527 185.218 124.482 185.218C123.455 185.198 122.43 185.218 121.405 185.279C119.462 185.343 117.541 185.715 115.714 186.38C114.224 186.969 112.892 187.898 111.825 189.094C111.711 189.212 111.606 189.329 111.504 189.451C111.419 189.553 111.338 189.65 111.256 189.752C110.148 191.129 109.174 192.669 107.749 193.753C107.664 193.818 107.579 193.879 107.493 193.932C107.092 194.21 106.657 194.437 106.198 194.606C106.219 194.431 106.235 194.257 106.247 194.078C106.546 193.954 106.833 193.802 107.104 193.623C107.25 193.526 107.392 193.424 107.53 193.314C108.817 192.315 109.734 190.897 110.737 189.626C110.92 189.394 111.102 189.175 111.297 188.96C112.306 187.773 113.561 186.821 114.975 186.169C116.762 185.412 118.665 184.967 120.601 184.853C121.838 184.748 123.079 184.706 124.32 184.727C124.482 184.727 124.645 184.731 124.807 184.739C129.285 184.876 133.715 185.699 137.944 187.181C141.076 188.273 144.074 189.721 146.878 191.495C147.008 191.572 147.134 191.653 147.26 191.734C147.52 191.905 147.211 192.27 146.952 192.104Z" fill="white"/>
<path d="M124.302 184.956C124.429 183.431 125.094 182.001 126.177 180.921C127.261 179.841 128.693 179.181 130.218 179.06C130.526 179.037 130.577 179.516 130.268 179.539C128.848 179.649 127.514 180.263 126.507 181.271C125.5 182.279 124.886 183.614 124.776 185.035C124.752 185.343 124.278 185.263 124.302 184.956Z" fill="white"/>
<path d="M111.725 188.977C113.723 191.384 116.554 192.948 119.654 193.359C119.961 193.4 119.882 193.874 119.575 193.834C116.351 193.401 113.408 191.766 111.334 189.258C111.137 189.018 111.529 188.739 111.725 188.977Z" fill="white"/>
<path d="M138.066 187.566C137.894 188.146 137.868 188.759 137.992 189.352C138.115 189.944 138.384 190.496 138.773 190.959C138.974 191.195 138.581 191.474 138.382 191.239C137.954 190.726 137.659 190.115 137.521 189.461C137.383 188.808 137.407 188.13 137.591 187.487C137.604 187.425 137.639 187.37 137.691 187.334C137.742 187.297 137.805 187.281 137.868 187.289C137.931 187.3 137.987 187.335 138.024 187.387C138.061 187.439 138.076 187.503 138.066 187.566Z" fill="white"/>
<path d="M18.8775 97.5794C12.6018 88.645 10.4081 76.2232 15.6936 66.6689C20.1621 77.6708 28.3756 86.7363 38.8808 92.2617C42.9399 94.378 47.6749 96.3088 49.4746 100.52C50.5946 103.14 50.2944 106.194 49.2775 108.856C48.2604 111.518 46.5841 113.868 44.9256 116.185L44.824 116.889C34.8481 112.46 25.1531 106.514 18.8775 97.5794Z" fill="#F0F0F0"/>
<path d="M15.9068 66.7517C15.9766 75.7906 18.8909 84.5776 24.2356 91.8648C25.3583 93.454 26.7244 94.8561 28.2835 96.0196C29.8389 97.104 31.656 97.7517 33.5462 97.8956C35.3059 98.0652 37.1255 98.0347 38.8133 98.6294C39.6728 98.9467 40.4555 99.4421 41.1102 100.083C41.7649 100.724 42.2767 101.497 42.6122 102.35C43.5032 104.454 43.5858 106.752 43.5884 109.003C43.5914 111.502 43.5549 114.097 44.6765 116.396C44.8124 116.675 44.3725 116.87 44.2368 116.591C42.2854 112.592 43.7283 108.005 42.6093 103.823C42.0872 101.872 40.9742 100.066 39.0602 99.2423C37.3866 98.522 35.5102 98.5517 33.727 98.3954C31.881 98.2821 30.0909 97.7182 28.5129 96.753C26.8996 95.6727 25.4818 94.3255 24.3203 92.7692C21.6493 89.3072 19.5389 85.4464 18.0665 81.3284C16.3599 76.6378 15.4678 71.6897 15.4287 66.6982C15.4264 66.3892 15.9045 66.4448 15.9068 66.7517Z" fill="white"/>
<path d="M22.3764 89.6195C21.0329 90.3508 19.4733 90.5805 17.9762 90.2674C16.479 89.9543 15.1419 89.1188 14.2035 87.9103C14.0144 87.6651 14.3863 87.3596 14.5756 87.6052C15.4474 88.7322 16.693 89.5103 18.0877 89.799C19.4825 90.0877 20.9344 89.868 22.1814 89.1795C22.4526 89.0302 22.6461 89.4711 22.3764 89.6195Z" fill="white"/>
<path d="M32.6425 97.9265C33.5549 94.9341 33.3067 91.7075 31.9473 88.8901C31.8124 88.6111 32.2522 88.4162 32.387 88.6949C33.7961 91.6294 34.0476 94.9877 33.0913 98.0996C33 98.3962 32.5516 98.2214 32.6425 97.9265Z" fill="white"/>
<path d="M16.9971 76.6752C17.5759 76.5006 18.1023 76.1849 18.529 75.7565C18.9557 75.328 19.2694 74.8002 19.4419 74.2205C19.5294 73.9229 19.9777 74.098 19.8907 74.3936C19.6971 75.0332 19.35 75.6157 18.8796 76.0901C18.4092 76.5645 17.8298 76.9165 17.1921 77.1151C17.1336 77.1389 17.0682 77.1395 17.0092 77.1168C16.9503 77.094 16.9022 77.0497 16.8748 76.9927C16.8492 76.9343 16.8478 76.8682 16.8707 76.8088C16.8936 76.7493 16.939 76.7013 16.9971 76.6752Z" fill="white"/>
<path d="M52.0106 59.8516C51.9612 60.0389 51.9119 60.2263 51.865 60.4168C51.2141 62.9391 50.769 65.5101 50.5341 68.1046C50.5127 68.3049 50.4941 68.5082 50.4786 68.7087C49.9793 74.9653 50.6452 81.2603 52.4424 87.2737C53.1597 89.6659 54.0579 92 55.1292 94.2559C56.6088 97.3712 58.4608 100.631 58.815 103.956C58.8559 104.302 58.8753 104.651 58.873 105L45.6903 116.957C45.6467 116.97 45.6056 116.985 45.5619 116.997L45.0574 117.499C44.994 117.386 44.9307 117.268 44.8673 117.156C44.8303 117.091 44.7962 117.023 44.7592 116.958C44.7354 116.913 44.7118 116.869 44.6878 116.83C44.6799 116.816 44.672 116.801 44.6668 116.789C44.6428 116.751 44.6247 116.712 44.6034 116.677C44.2477 116.018 43.896 115.356 43.5484 114.69C43.5456 114.687 43.5456 114.687 43.5458 114.681C40.9096 109.599 38.6742 104.253 37.3209 98.7365C37.2802 98.5705 37.2367 98.4016 37.202 98.2302C36.6058 95.7404 36.2139 93.206 36.0303 90.6523C35.9342 89.2537 35.909 87.8511 35.9547 86.4499C36.0797 82.8296 36.773 79.2516 38.0091 75.8469C40.4744 69.0601 45.0814 63.1379 51.5167 60.0803C51.6814 60.0022 51.8432 59.9267 52.0106 59.8516Z" fill="#F0F0F0"/>
<path d="M52.1323 60.0463C46.7497 67.3054 43.7896 76.0771 43.6726 85.1155C43.6129 87.0608 43.86 89.0034 44.4048 90.8717C44.9942 92.6745 46.0554 94.2865 47.478 95.5401C48.781 96.7357 50.2521 97.8076 51.242 99.2993C51.7374 100.07 52.0642 100.938 52.2012 101.844C52.3381 102.75 52.2821 103.675 52.0367 104.559C51.4824 106.775 50.1653 108.66 48.8133 110.459C47.3121 112.456 45.7213 114.506 45.2336 117.017C45.1745 117.322 44.7061 117.212 44.7651 116.908C45.6136 112.539 49.5251 109.746 51.1479 105.733C51.9051 103.861 52.103 101.748 51.0704 99.9374C50.1675 98.3539 48.6513 97.2472 47.3216 96.0481C45.9159 94.8455 44.8259 93.3168 44.1467 91.5954C43.5086 89.7609 43.1871 87.8311 43.196 85.8887C43.1465 81.5153 43.7844 77.1613 45.0864 72.9861C46.546 68.2129 48.8108 63.7246 51.7829 59.7155C51.9669 59.4675 52.3152 59.7999 52.1323 60.0463Z" fill="white"/>
<path d="M43.5392 82.2027C42.0265 81.9772 40.6431 81.2209 39.6361 80.0689C38.6291 78.917 38.0641 77.4444 38.042 75.914C38.0417 75.8516 38.0655 75.7915 38.1086 75.7464C38.1517 75.7012 38.2106 75.6746 38.273 75.6721C38.3353 75.6696 38.3962 75.6913 38.4428 75.7329C38.4894 75.7744 38.518 75.8324 38.5227 75.8946C38.5407 77.3197 39.0671 78.6914 40.007 79.7622C40.9469 80.8329 42.2383 81.5323 43.6483 81.7339C43.9546 81.7781 43.8438 82.2466 43.5392 82.2027Z" fill="white"/>
<path d="M46.7377 95.0206C49.2667 93.181 51.0098 90.4552 51.6196 87.3866C51.6798 87.0826 52.1482 87.192 52.0881 87.4957C51.4476 90.6877 49.6278 93.5207 46.9919 95.4292C46.7405 95.6109 46.4877 95.2013 46.7377 95.0206Z" fill="white"/>
<path d="M47.0318 68.6266C47.599 68.8359 48.2092 68.901 48.8077 68.816C49.4062 68.731 49.9742 68.4986 50.4608 68.1396C50.7097 67.9548 50.9623 68.3646 50.7149 68.5482C50.1755 68.9423 49.5479 69.1982 48.8869 69.2936C48.2258 69.389 47.5515 69.321 46.9228 69.0954C46.8618 69.0791 46.8092 69.0402 46.7758 68.9865C46.7424 68.9329 46.7307 68.8685 46.7431 68.8065C46.7578 68.7445 46.7964 68.6908 46.8505 68.6572C46.9045 68.6235 46.9697 68.6125 47.0318 68.6266Z" fill="white"/>
<path d="M107.53 191.393C107.413 188.87 106.893 186.383 105.992 184.024C105.931 183.862 105.866 183.703 105.797 183.541C105.419 182.609 104.98 181.704 104.482 180.831C102.725 177.683 100.153 175.068 97.0366 173.259C96.9757 173.227 96.9189 173.194 96.862 173.162C97.8211 170.433 98.1433 167.52 97.8039 164.648C97.0812 158.891 93.8661 153.769 89.9852 149.589C82.7878 141.83 72.6676 137.195 65.6852 129.29C65.5958 129.189 65.5024 129.083 65.4132 128.978C65.3198 128.872 65.2304 128.762 65.1371 128.653C64.2119 127.559 63.3603 126.406 62.5878 125.2C61.2698 123.126 60.1744 120.919 59.3198 118.615C59.0235 117.815 58.7515 116.998 58.5121 116.178C58.2726 115.373 58.0615 114.561 57.8788 113.74C57.7002 112.932 57.5473 112.12 57.4201 111.303C57.2942 110.495 57.1954 109.682 57.1237 108.866C57.0506 108.053 57.0032 107.241 56.9816 106.429C56.8747 102.456 57.3953 98.4911 58.5242 94.6808C58.5608 94.5468 58.6013 94.4168 58.6461 94.2827C58.6865 94.1487 58.7271 94.0146 58.7717 93.8806C58.8084 93.7628 58.8449 93.649 58.8855 93.5312C60.765 87.9092 64.1141 83.1768 68.2588 78.9927C70.8487 76.3767 73.6458 73.9597 76.3332 71.4371C76.4305 71.3477 76.528 71.2543 76.6256 71.1609C76.727 71.0675 76.8325 70.97 76.934 70.8725C78.6364 69.2773 80.2491 67.5889 81.7647 65.8151C82.6417 64.7764 83.459 63.6887 84.2127 62.5572C84.7445 61.7692 85.2397 60.9527 85.6944 60.1199C86.1329 59.3237 86.5321 58.5113 86.892 57.6826C87.2369 56.8864 87.5456 56.0699 87.8094 55.2453C88.0665 54.4452 88.2792 53.6316 88.4467 52.808C88.6132 52.0034 88.7312 51.1895 88.7999 50.3707C88.8033 50.3631 88.8047 50.3547 88.804 50.3464C89.1772 46.166 87.9236 42.0028 85.3047 38.7245C85.2072 38.5986 85.1057 38.4767 85.0002 38.3548C84.8988 38.2289 84.7932 38.1071 84.6835 37.9893C84.1445 37.3782 83.5611 36.808 82.938 36.2831C76.2763 30.6367 67.5526 29.6821 59.4782 27.1555C59.3484 27.1148 59.2225 27.0742 59.0925 27.0336C58.9587 26.9889 58.8247 26.9483 58.6907 26.9036C56.6103 26.2415 54.5907 25.4016 52.6542 24.3932C52.6298 24.381 52.6096 24.3688 52.5852 24.3566C51.4901 23.7713 50.4447 23.0974 49.4593 22.3418C48.5056 21.6136 47.6221 20.7976 46.8206 19.9045C46.6137 19.677 46.4148 19.4455 46.224 19.2099C45.7734 18.6615 45.0264 19.3236 45.266 19.9045C45.289 19.9663 45.3219 20.0239 45.3633 20.0751C46.0236 20.8867 46.7471 21.6446 47.5271 22.3418C48.5477 23.2568 49.6528 24.0728 50.8274 24.7791C53.1148 26.1226 55.5506 27.1954 58.0857 27.976C58.2197 28.0207 58.3537 28.0613 58.4877 28.106C58.6175 28.1466 58.7476 28.1873 58.8816 28.2279C63.7732 29.7512 68.953 30.722 73.5889 32.4525C77.0963 33.7605 80.6282 35.5723 83.2871 38.2574C83.3967 38.3711 83.5063 38.4848 83.6119 38.5986C83.7215 38.7123 83.827 38.8301 83.9326 38.9479C84.5764 39.6762 85.15 40.4637 85.6456 41.2999C87.2216 44.0465 87.8894 47.2214 87.5537 50.3707C87.4823 51.1899 87.3602 52.0039 87.1882 52.808C87.0117 53.633 86.7867 54.4469 86.5144 55.2453C86.2708 55.9806 85.9866 56.6996 85.6742 57.4064C85.6335 57.4998 85.5888 57.5933 85.5483 57.6826C85.1626 58.5235 84.7404 59.3359 84.2817 60.1199C83.7945 60.9608 83.2708 61.7692 82.7106 62.5572C80.7091 65.284 78.4512 67.8128 75.9679 70.1088C75.8664 70.2063 75.7649 70.3038 75.6634 70.3972C75.5659 70.4906 75.4686 70.58 75.3752 70.6734C70.9625 74.8331 66.229 78.7449 62.6445 83.6114C60.3777 86.7109 58.6423 90.1662 57.5093 93.8359C57.4686 93.9699 57.424 94.104 57.3876 94.2421C57.343 94.3761 57.3023 94.5102 57.2657 94.6483C56.1703 98.4758 55.6678 102.449 55.7759 106.429C55.7963 107.241 55.8409 108.053 55.914 108.866C55.983 109.682 56.0777 110.495 56.198 111.303C56.2549 111.705 56.32 112.103 56.3929 112.502C56.466 112.916 56.5473 113.33 56.6405 113.74C56.8111 114.561 57.0141 115.373 57.2415 116.178C57.4728 116.998 57.7366 117.811 58.0248 118.615C59.0173 121.408 60.3538 124.066 62.0033 126.528C62.6203 127.442 63.2778 128.316 63.9761 129.156C64.0695 129.266 64.1628 129.38 64.2562 129.489C64.3456 129.599 64.4389 129.705 64.5323 129.81C67.3008 133.003 70.6011 135.717 73.9948 138.256C82.9419 144.946 94.2275 151.823 96.4439 163.762C96.9677 166.719 96.7301 169.761 95.7537 172.601C94.46 172.001 93.0982 171.561 91.6984 171.289C87.36 170.521 82.8899 171.149 78.9312 173.085C78.8095 173.146 78.6877 173.206 78.5659 173.267C78.44 173.336 78.3142 173.401 78.1925 173.471C75.7159 174.77 73.6496 176.733 72.2249 179.141C71.7919 179.914 71.4422 180.732 71.1817 181.579C70.9405 182.373 70.78 183.189 70.7026 184.016C70.6661 184.394 70.6457 184.784 70.6418 185.178C70.6371 185.604 70.6588 186.03 70.7068 186.453C70.7982 187.291 71.0073 188.111 71.3278 188.89C71.6571 189.706 72.1425 190.45 72.7567 191.08C72.842 191.165 72.9272 191.251 73.0166 191.328C73.8885 192.078 74.9322 192.601 76.0548 192.849C77.1774 193.098 78.3441 193.065 79.4509 192.754C80.0654 192.595 80.6645 192.381 81.241 192.116C81.4277 192.035 81.6104 191.945 81.7891 191.848C81.9677 191.758 82.1463 191.661 82.3251 191.559C83.895 190.619 85.3372 189.481 86.6159 188.171C88.7616 186.023 90.7326 183.707 92.5103 181.245C92.7699 180.888 93.0256 180.527 93.2774 180.161C94.546 178.329 95.6067 176.362 96.4397 174.295C99.3296 175.957 101.721 178.364 103.365 181.266C103.942 182.252 104.435 183.284 104.839 184.353C104.904 184.507 104.961 184.666 105.018 184.824C105.139 185.157 105.253 185.499 105.354 185.84C105.974 187.875 106.298 189.989 106.316 192.116C106.325 192.77 106.3 193.428 106.248 194.078C106.235 194.257 106.219 194.431 106.199 194.606C105.983 196.695 105.462 198.741 104.652 200.679C104.542 200.943 104.425 201.207 104.303 201.467C102.143 205.986 98.7411 209.794 94.4952 212.447C92.31 213.837 89.9442 214.919 87.4642 215.664C86.7174 215.892 87.0339 217.07 87.7891 216.842C95.6685 214.462 102.692 208.612 105.825 201.012C106.732 198.821 107.291 196.502 107.482 194.139C107.486 194.07 107.494 194.001 107.494 193.932C107.51 193.724 107.522 193.521 107.53 193.314C107.559 192.676 107.555 192.035 107.53 191.393ZM91.7472 180.23C90.0102 182.666 88.0812 184.959 85.9786 187.087C85.0227 188.074 83.9821 188.975 82.869 189.78C82.7025 189.898 82.532 190.012 82.3616 190.125C82.1911 190.235 82.0165 190.341 81.8418 190.442C80.874 191.027 79.8146 191.445 78.708 191.677C77.285 191.967 75.8053 191.705 74.5672 190.946C73.7605 190.443 73.1031 189.734 72.6634 188.89C72.6228 188.821 72.5862 188.749 72.5538 188.675C72.2279 187.973 72.0155 187.222 71.9246 186.453C71.8224 185.644 71.8237 184.825 71.9286 184.016C72.0116 183.336 72.1542 182.664 72.355 182.009C72.3996 181.863 72.4483 181.721 72.4969 181.579C72.8003 180.72 73.2065 179.902 73.7066 179.141C75.0445 177.159 76.8447 175.531 78.9516 174.401C79.0733 174.332 79.1951 174.267 79.3209 174.202C79.4386 174.137 79.5564 174.076 79.6781 174.019C80.5737 173.575 81.5054 173.208 82.4631 172.922C86.7157 171.632 91.2907 171.92 95.3478 173.735C94.4224 176.041 93.2128 178.223 91.7472 180.23Z" fill="#E4E4E4"/>
<path d="M42.8341 36.9657C52.9231 36.9657 61.1018 28.7816 61.1018 18.686C61.1018 8.59037 52.9231 0.40625 42.8341 0.40625C32.7451 0.40625 24.5664 8.59037 24.5664 18.686C24.5664 28.7816 32.7451 36.9657 42.8341 36.9657Z" fill="white"/>
<path d="M42.8341 1.75561e-06C39.5656 -0.00141581 36.354 0.855647 33.5203 2.48552C30.6865 4.11539 28.33 6.46097 26.6861 9.28783C25.0422 12.1147 24.1686 15.3238 24.1526 18.5944C24.1366 21.865 24.9787 25.0825 26.5948 27.9253C28.2109 30.7682 30.5444 33.1368 33.3621 34.7944C36.1797 36.4519 39.3828 37.3404 42.6511 37.3711C45.9194 37.4017 49.1386 36.5734 51.9867 34.9689C54.8349 33.3645 57.2123 31.04 58.8814 28.228C59.0923 27.8786 59.2912 27.5212 59.478 27.1556C60.9262 24.307 61.62 21.1344 61.493 17.9409C61.366 14.7475 60.4225 11.64 58.7527 8.91559C57.0829 6.1912 54.7426 3.94096 51.9556 2.38002C49.1685 0.819081 46.028 -0.000372662 42.8341 1.75561e-06ZM42.8341 36.5595C38.9331 36.5625 35.1382 35.2886 32.0283 32.932C28.9184 30.5755 26.6643 27.2656 25.6098 23.5074C24.5552 19.7492 24.7582 15.749 26.1877 12.117C27.6172 8.48499 30.1948 5.42061 33.5272 3.39133C36.8596 1.36206 40.7639 0.479288 44.6445 0.877697C48.5251 1.27611 52.1689 2.93382 55.0201 5.59795C57.8713 8.26208 59.7734 11.7864 60.436 15.6332C61.0987 19.48 60.4857 23.4381 58.6905 26.9037C58.5038 27.2693 58.3008 27.6268 58.0855 27.9761C56.4926 30.5958 54.253 32.7613 51.582 34.2645C48.9111 35.7677 45.8985 36.558 42.8341 36.5595Z" fill="#E4E4E4"/>
<path d="M33.9028 15.0303L51.7646 15.0303C52.4372 15.0303 52.9824 14.4847 52.9824 13.8116C52.9824 13.1386 52.4372 12.593 51.7646 12.593L33.9028 12.593C33.2302 12.593 32.685 13.1386 32.685 13.8116C32.685 14.4847 33.2302 15.0303 33.9028 15.0303Z" fill="#E4E4E4"/>
<path d="M33.9028 19.9043L51.7646 19.9043C52.4372 19.9043 52.9824 19.3587 52.9824 18.6856C52.9824 18.0126 52.4372 17.467 51.7646 17.467L33.9028 17.467C33.2302 17.467 32.685 18.0126 32.685 18.6856C32.685 19.3587 33.2302 19.9043 33.9028 19.9043Z" fill="#E4E4E4"/>
<path d="M33.9028 24.7793L51.7646 24.7793C52.4372 24.7793 52.9824 24.2337 52.9824 23.5606C52.9824 22.8876 52.4372 22.342 51.7646 22.342L33.9028 22.342C33.2302 22.342 32.685 22.8876 32.685 23.5606C32.685 24.2337 33.2302 24.7793 33.9028 24.7793Z" fill="#E4E4E4"/>
<path d="M57.4484 130.802C67.5374 130.802 75.7161 122.618 75.7161 112.522C75.7161 102.426 67.5374 94.2422 57.4484 94.2422C47.3594 94.2422 39.1807 102.426 39.1807 112.522C39.1807 122.618 47.3594 130.802 57.4484 130.802Z" fill="white"/>
<path d="M58.771 93.8806C58.353 93.8522 57.9349 93.8359 57.5086 93.8359H57.4477C54.6893 93.8357 51.965 94.447 49.4708 95.6259C46.9765 96.8048 44.7743 98.522 43.0223 100.654C41.2704 102.786 40.0122 105.28 39.3383 107.957C38.6644 110.633 38.5915 113.426 39.1248 116.134C39.658 118.843 40.7843 121.399 42.4226 123.62C44.0608 125.84 46.1705 127.67 48.5997 128.978C51.029 130.286 53.7177 131.038 56.4724 131.182C59.2271 131.326 61.9794 130.858 64.5316 129.81C64.9213 129.648 65.3068 129.473 65.6844 129.29C69.3677 127.479 72.352 124.504 74.1759 120.825C75.9999 117.146 76.5618 112.968 75.7748 108.937C74.9879 104.907 72.8959 101.248 69.8224 98.5259C66.7488 95.8044 62.8648 94.1718 58.771 93.8806ZM57.4477 130.395C52.7263 130.395 48.197 128.525 44.85 125.192C41.503 121.86 39.6105 117.337 39.5864 112.613C39.5622 107.888 41.4083 103.347 44.7211 99.9802C48.0339 96.6139 52.5438 94.6969 57.265 94.6484H57.4477C57.8091 94.6484 58.1662 94.6606 58.5234 94.6809C62.4762 94.9192 66.2377 96.4653 69.2166 99.0761C72.1955 101.687 74.2229 105.214 74.98 109.104C75.7371 112.993 75.181 117.024 73.3992 120.563C71.6173 124.101 68.7107 126.947 65.1364 128.653C64.7548 128.836 64.3691 129.002 63.9754 129.156C61.897 129.977 59.6822 130.398 57.4477 130.395Z" fill="#E4E4E4"/>
<path d="M48.5171 108.866H66.3788C67.0514 108.866 67.5967 108.321 67.5967 107.648C67.5967 106.975 67.0514 106.429 66.3788 106.429H48.5171C47.8445 106.429 47.2992 106.975 47.2992 107.648C47.2992 108.321 47.8445 108.866 48.5171 108.866Z" fill="#E4E4E4"/>
<path d="M48.5171 113.74H66.3788C67.0514 113.74 67.5967 113.195 67.5967 112.522C67.5967 111.849 67.0514 111.303 66.3788 111.303H48.5171C47.8445 111.303 47.2992 111.849 47.2992 112.522C47.2992 113.195 47.8445 113.74 48.5171 113.74Z" fill="#E4E4E4"/>
<path d="M48.5171 118.615H66.3788C67.0514 118.615 67.5967 118.07 67.5967 117.397C67.5967 116.724 67.0514 116.178 66.3788 116.178H48.5171C47.8445 116.178 47.2992 116.724 47.2992 117.397C47.2992 118.07 47.8445 118.615 48.5171 118.615Z" fill="#E4E4E4"/>
<path d="M64.755 203.515C74.844 203.515 83.0227 195.33 83.0227 185.235C83.0227 175.139 74.844 166.955 64.755 166.955C54.666 166.955 46.4873 175.139 46.4873 185.235C46.4873 195.33 54.666 203.515 64.755 203.515Z" fill="white"/>
<path d="M79.6777 174.019C79.4382 173.698 79.1906 173.389 78.9308 173.084C76.2598 169.966 72.6364 167.816 68.6212 166.966C64.606 166.116 60.4228 166.614 56.7188 168.382C53.0148 170.151 49.9966 173.092 48.131 176.75C46.2654 180.408 45.6565 184.579 46.3985 188.618C47.1405 192.657 49.192 196.339 52.2357 199.094C55.2793 201.849 59.1454 203.523 63.2358 203.858C67.3262 204.193 71.4129 203.169 74.8636 200.946C78.3142 198.723 80.9365 195.424 82.3247 191.559C82.537 190.976 82.7185 190.382 82.8686 189.78C83.5451 187.081 83.6097 184.265 83.0576 181.537C82.5055 178.81 81.3506 176.241 79.6777 174.019ZM64.7551 203.108C61.7666 203.11 58.8255 202.361 56.201 200.931C53.5766 199.5 51.3528 197.434 49.7332 194.921C48.1137 192.407 47.1502 189.528 46.931 186.545C46.7118 183.563 47.2439 180.573 48.4785 177.85C49.7132 175.127 51.611 172.757 53.998 170.958C56.3851 169.158 59.1851 167.987 62.1417 167.552C65.0982 167.116 68.1168 167.429 70.9209 168.463C73.725 169.497 76.2251 171.219 78.192 173.47C78.4558 173.771 78.7076 174.08 78.9512 174.4C80.6717 176.652 81.8313 179.282 82.3339 182.072C82.8365 184.861 82.6677 187.731 81.8414 190.442C81.6703 191.01 81.4698 191.569 81.2406 192.116C79.8803 195.369 77.5899 198.148 74.6571 200.103C71.7242 202.059 68.2794 203.104 64.7551 203.108Z" fill="#E4E4E4"/>
<path d="M55.8247 181.579H73.6864C74.359 181.579 74.9043 181.033 74.9043 180.36C74.9043 179.687 74.359 179.142 73.6864 179.142H55.8247C55.1521 179.142 54.6068 179.687 54.6068 180.36C54.6068 181.033 55.1521 181.579 55.8247 181.579Z" fill="#E4E4E4"/>
<path d="M55.8247 186.453H73.6864C74.359 186.453 74.9043 185.908 74.9043 185.234C74.9043 184.561 74.359 184.016 73.6864 184.016H55.8247C55.1521 184.016 54.6068 184.561 54.6068 185.234C54.6068 185.908 55.1521 186.453 55.8247 186.453Z" fill="#E4E4E4"/>
<path d="M55.8247 191.328H73.6864C74.359 191.328 74.9043 190.783 74.9043 190.109C74.9043 189.436 74.359 188.891 73.6864 188.891H55.8247C55.1521 188.891 54.6068 189.436 54.6068 190.109C54.6068 190.783 55.1521 191.328 55.8247 191.328Z" fill="#E4E4E4"/>
<path d="M87.4884 74.744C97.5774 74.744 105.756 66.5599 105.756 56.4643C105.756 46.3687 97.5774 38.1846 87.4884 38.1846C77.3994 38.1846 69.2207 46.3687 69.2207 56.4643C69.2207 66.5599 77.3994 74.744 87.4884 74.744Z" fill="#008069"/>
<path d="M87.4881 37.7783C86.5491 37.7784 85.6114 37.849 84.683 37.9895C84.208 38.0586 83.7454 38.148 83.2865 38.2577C79.9164 39.035 76.8285 40.734 74.3672 43.1652C71.9058 45.5963 70.1679 48.6639 69.3474 52.0259C68.5268 55.3878 68.6559 58.9117 69.7202 62.2045C70.7845 65.4973 72.7421 68.4294 75.3747 70.6737C75.6873 70.9378 76.0038 71.1937 76.3327 71.4374C78.7026 73.2056 81.4583 74.3853 84.3729 74.8796C87.2875 75.3738 90.2778 75.1684 93.0976 74.2802C95.9174 73.3921 98.4861 71.8466 100.592 69.7709C102.699 67.6952 104.282 65.1488 105.213 62.341C106.143 59.5333 106.394 56.5445 105.945 53.6208C105.496 50.697 104.359 47.9218 102.628 45.5236C100.898 43.1253 98.6227 41.1726 95.9905 39.826C93.3584 38.4795 90.4443 37.7777 87.4881 37.7783ZM87.4881 74.3378C83.6901 74.3419 79.9909 73.1274 76.9335 70.8728C76.6006 70.629 76.2799 70.3772 75.9673 70.1091C73.4025 67.9441 71.4994 65.0995 70.4763 61.9016C69.4532 58.7037 69.3516 55.282 70.1831 52.029C71.0146 48.776 72.7455 45.8233 75.1773 43.5097C77.6091 41.1961 80.6434 39.6151 83.9321 38.9482C84.3866 38.8548 84.8413 38.7817 85.3042 38.7248C86.0287 38.635 86.7581 38.5903 87.4881 38.5908C92.2254 38.5908 96.7686 40.4739 100.118 43.8258C103.468 47.1777 105.35 51.7239 105.35 56.4643C105.35 61.2046 103.468 65.7509 100.118 69.1028C96.7686 72.4547 92.2254 74.3378 87.4881 74.3378Z" fill="#E4E4E4"/>
<path d="M78.5571 52.8086H96.4189C97.0915 52.8086 97.6367 52.263 97.6367 51.5899C97.6367 50.9169 97.0915 50.3713 96.4189 50.3713H78.5571C77.8845 50.3713 77.3393 50.9169 77.3393 51.5899C77.3393 52.263 77.8845 52.8086 78.5571 52.8086Z" fill="white"/>
<path d="M78.5571 57.6826H96.4189C97.0915 57.6826 97.6367 57.137 97.6367 56.464C97.6367 55.7909 97.0915 55.2453 96.4189 55.2453H78.5571C77.8845 55.2453 77.3393 55.7909 77.3393 56.464C77.3393 57.137 77.8845 57.6826 78.5571 57.6826Z" fill="white"/>
<path d="M78.5571 62.5576H96.4189C97.0915 62.5576 97.6367 62.012 97.6367 61.339C97.6367 60.6659 97.0915 60.1203 96.4189 60.1203H78.5571C77.8845 60.1203 77.3393 60.6659 77.3393 61.339C77.3393 62.012 77.8845 62.5576 78.5571 62.5576Z" fill="white"/>
<path d="M192.752 211.051L188.069 209.364L192.346 190.488L199.257 192.979L192.752 211.051Z" fill="#FFB6B6"/>
<path d="M193.299 209.522L188.431 207.767L185.273 206.63C184.501 206.352 183.682 206.228 182.863 206.267C182.044 206.305 181.24 206.505 180.498 206.854C179.756 207.203 179.089 207.695 178.537 208.302C177.985 208.909 177.558 209.619 177.28 210.391L177.211 210.582L192.312 216.022L194.496 209.953L193.299 209.522Z" fill="#2F2E41"/>
<path d="M267.304 204.38L263.011 206.898L251.259 191.526L257.596 187.809L267.304 204.38Z" fill="#FFB6B6"/>
<path d="M267.58 202.336L266.484 202.978L262.019 205.598L259.124 207.296C258.416 207.71 257.797 208.261 257.302 208.915C256.807 209.569 256.445 210.315 256.238 211.109C256.031 211.903 255.983 212.73 256.095 213.543C256.208 214.356 256.48 215.139 256.895 215.847L256.997 216.021L270.84 207.901L267.58 202.336Z" fill="#2F2E41"/>
<path d="M221.325 51.1236C226.826 51.1236 231.285 46.6614 231.285 41.157C231.285 35.6526 226.826 31.1904 221.325 31.1904C215.824 31.1904 211.365 35.6526 211.365 41.157C211.365 46.6614 215.824 51.1236 221.325 51.1236Z" fill="#FFB6B6"/>
<path d="M225.177 54.7061L223.09 55.2898L215.768 60.5266L207.843 69.8652C207.843 69.8652 204.998 75.2044 206.065 81.2555C207.132 87.3067 209.471 99.9116 209.471 99.9116C209.471 99.9116 228.859 99.7788 229.57 98.7109C230.282 97.6431 230.513 92.7926 230.513 92.7926L233.358 61.1131C233.358 61.1131 230.157 55.7739 228.378 55.7739C227.23 55.7352 226.118 55.3643 225.177 54.7061Z" fill="#008069"/>
<path d="M229.976 98.3047C229.976 98.3047 226.244 98.4878 223.754 99.1997C221.264 99.9116 208.76 99.1997 208.76 99.1997L202.056 125.896L188.976 201.077L199.124 203.108L216.986 148.676L225.917 165.737L253.927 196.609L261.64 191.734L238.501 155.175L233.359 127.32C233.359 127.32 237.983 111.658 231.58 102.047L229.976 98.3047Z" fill="#2F2E41"/>
<path opacity="0.2" d="M222.907 72.96L219.35 99.3002L215.619 99.4948L222.907 72.96Z" fill="black"/>
<path d="M208.461 102.367C209.582 102.367 210.491 101.276 210.491 99.9295C210.491 98.5834 209.582 97.4922 208.461 97.4922C207.34 97.4922 206.432 98.5834 206.432 99.9295C206.432 101.276 207.34 102.367 208.461 102.367Z" fill="#2F2E41"/>
<path d="M218.601 133.555C219.024 133.134 219.35 132.625 219.555 132.064C219.76 131.504 219.84 130.905 219.789 130.31C219.738 129.715 219.557 129.138 219.259 128.621C218.961 128.103 218.554 127.657 218.065 127.315L222.038 113.354L214.848 115.623L212.178 128.533C211.657 129.392 211.469 130.413 211.65 131.402C211.831 132.391 212.368 133.28 213.16 133.899C213.952 134.518 214.943 134.825 215.946 134.761C216.948 134.698 217.893 134.269 218.601 133.555Z" fill="#FFB6B6"/>
<path d="M226.592 56.6411C226.592 56.6411 231.382 54.566 234.291 59.7902C237.199 65.0143 233.002 83.1712 232.413 86.118C231.824 89.0648 219.016 126.333 219.016 126.333L212.115 123.896L226.592 56.6411Z" fill="#008069"/>
<path d="M233.653 24.8438C234.075 25.4804 234.312 26.2226 234.335 26.9867C234.359 27.7507 234.168 28.5061 233.785 29.1675C233.367 28.4206 232.695 27.8477 231.892 27.552C231.089 27.2563 230.207 27.2571 229.404 27.5544C228.601 27.8517 227.931 28.4259 227.514 29.1736C227.097 29.9214 226.96 30.7936 227.128 31.6333C222.291 29.5157 219.927 28.4126 214.897 30.019C213.754 30.3499 212.673 30.866 211.697 31.5469C210.652 32.3409 209.838 33.3993 209.339 34.6131C208.839 35.8268 208.672 37.152 208.855 38.4518C211.914 38.216 211.725 38.7927 214.783 38.557L214.642 38.2315C215.867 40.4747 216.417 43.0242 216.227 45.5731C216.037 48.122 215.115 50.5617 213.572 52.5983C213.122 53.098 212.737 53.6529 212.427 54.2497C212.276 54.5506 212.206 54.8861 212.226 55.2225C212.245 55.5589 212.353 55.8843 212.538 56.1657C212.837 56.4965 213.225 56.7336 213.655 56.8485C214.595 57.1655 215.589 57.2886 216.578 57.2104C217.567 57.1322 218.53 56.8543 219.408 56.3934C220.286 55.9325 221.062 55.2983 221.689 54.529C222.316 53.7597 222.78 52.8712 223.054 51.9173C222.983 53.5054 223.063 55.4017 224.408 56.248C225.181 56.7343 226.157 56.7097 227.069 56.6691C229.467 56.5624 231.865 56.4557 234.264 56.3489C233.36 55.8238 233.011 54.6526 233.118 53.6121C233.226 52.5717 233.694 51.6097 234.077 50.6365C236.204 45.231 234.592 39.5072 231.6 34.5287C233.883 34.6295 237.156 32.086 237.401 29.8134C237.486 28.6708 237.152 27.5363 236.463 26.6217C235.773 25.7072 234.774 25.0752 233.653 24.8438Z" fill="#2F2E41"/>
<path d="M295 216.09H0V217H295V216.09Z" fill="#CACACA"/>
</g>
<defs>
<clipPath id="clip0_2435_718">
<rect width="295" height="217" fill="white"/>
</clipPath>
</defs>
</svg>
