<svg width="213" height="252" viewBox="0 0 213 252" fill="none" xmlns="http://www.w3.org/2000/svg">
<g clip-path="url(#clip0_2435_802)">
<path d="M151.476 211.474L153.583 252C153.583 252 64.4613 167.023 53.3583 142.16C42.2553 117.297 63.1551 55.7939 63.1551 55.7939L109.527 81.3113L151.476 211.474Z" fill="#9F616A"/>
<path d="M14.8243 38.7822L1.10881 40.0908C1.10881 40.0908 -6.07552 55.7938 16.1306 57.1024L14.8243 38.7822Z" fill="#9F616A"/>
<path d="M14.8243 62.9912L1.10881 64.2998C1.10881 64.2998 -6.07552 80.0028 16.1306 81.3114L14.8243 62.9912Z" fill="#9F616A"/>
<path d="M14.8243 89.1631L1.10881 90.4717C1.10881 90.4717 -6.07552 106.175 16.1306 107.483L14.8243 89.1631Z" fill="#9F616A"/>
<path d="M18.7432 115.335L5.02775 116.644C5.02775 116.644 -2.15658 132.347 20.0495 133.655L18.7432 115.335Z" fill="#9F616A"/>
<path d="M8.14746 45.0909H9.18816V16.5302C9.18816 14.3594 9.61496 12.2099 10.4442 10.2044C11.2734 8.19883 12.4888 6.37656 14.0211 4.84159C15.5533 3.30662 17.3723 2.08901 19.3742 1.25829C21.3762 0.427572 23.5218 1.66316e-06 25.6887 0H86.0902C88.257 -4.43496e-06 90.4027 0.427559 92.4046 1.25827C94.4066 2.08899 96.2256 3.30659 97.7578 4.84156C99.2901 6.37652 100.505 8.19879 101.335 10.2043C102.164 12.2098 102.591 14.3594 102.591 16.5301V173.217C102.591 175.387 102.164 177.537 101.335 179.542C100.506 181.548 99.2901 183.37 97.7579 184.905C96.2256 186.44 94.4066 187.658 92.4047 188.489C90.4028 189.319 88.2571 189.747 86.0902 189.747H25.6888C21.3126 189.747 17.1156 188.005 14.0211 184.905C10.9266 181.805 9.18819 177.601 9.18817 173.217V65.421H8.14746V45.0909Z" fill="#3F3D56"/>
<path d="M25.0227 4.30079H32.907C32.5445 5.19132 32.406 6.15751 32.504 7.11425C32.602 8.07099 32.9333 8.98891 33.4688 9.78715C34.0043 10.5854 34.7275 11.2395 35.5748 11.6917C36.4221 12.144 37.3673 12.3806 38.3274 12.3807H72.9306C73.8906 12.3806 74.8359 12.144 75.6832 11.6917C76.5304 11.2395 77.2537 10.5854 77.7892 9.78716C78.3247 8.98891 78.656 8.07099 78.754 7.11425C78.8519 6.15751 78.7135 5.19131 78.3509 4.30078H85.715C88.9831 4.30078 92.1173 5.60136 94.4282 7.91641C96.7392 10.2315 98.0374 13.3713 98.0374 16.6453V173.102C98.0374 174.723 97.7187 176.328 97.0994 177.826C96.4802 179.324 95.5725 180.685 94.4283 181.831C93.284 182.977 91.9256 183.886 90.4306 184.507C88.9355 185.127 87.3332 185.446 85.715 185.446H25.0227C23.4044 185.446 21.8021 185.127 20.3071 184.507C18.812 183.886 17.4536 182.977 16.3094 181.831C15.1651 180.685 14.2574 179.324 13.6382 177.826C13.0189 176.328 12.7002 174.723 12.7002 173.102V16.6453C12.7002 15.0242 13.0189 13.419 13.6382 11.9213C14.2574 10.4236 15.1651 9.06272 16.3094 7.91642C17.4536 6.77012 18.812 5.86083 20.3071 5.24046C21.8021 4.62009 23.4044 4.30079 25.0227 4.30079Z" fill="white"/>
<path d="M68.3717 48.1318H42.3652V54.4187H68.3717V48.1318Z" fill="#008069"/>
<path d="M69.6096 75.1465H41.127V81.4333H69.6096V75.1465Z" fill="#E5E5E5"/>
<path d="M87.1536 88.6514H23.583V94.9382H87.1536V88.6514Z" fill="#E5E5E5"/>
<path d="M87.1536 102.156H23.583V108.443H87.1536V102.156Z" fill="#E5E5E5"/>
<path d="M213 232.581L139.897 149.03L137.285 95.3784L109.854 49.578L102.016 29.9492C102.016 29.9492 83.7289 31.9121 98.7506 69.2067L104.955 89.1626C99.3623 101.231 96.4647 114.376 96.4647 127.681V173.41C96.4647 184.178 147.685 242.829 153.647 251.789L213 232.581Z" fill="#9F616A"/>
<path opacity="0.2" d="M104.166 53.4598L109.62 50.7749L109.434 50.3958L104.395 52.8768L96.7891 32.8994L96.3955 33.0501L104.166 53.4598Z" fill="black"/>
<path opacity="0.2" d="M1.18181 39.8919L1.03613 40.2881L9.1146 43.2693L9.26027 42.8731L1.18181 39.8919Z" fill="black"/>
<path opacity="0.2" d="M1.18181 64.3773L1.03613 64.7734L9.1146 67.7546L9.26027 67.3584L1.18181 64.3773Z" fill="black"/>
<path opacity="0.2" d="M1.18181 90.5501L1.03613 90.9463L9.1146 93.9275L9.26027 93.5313L1.18181 90.5501Z" fill="black"/>
<path opacity="0.2" d="M5.41375 116.731L5.23145 117.111L9.16451 119.002L9.34681 118.622L5.41375 116.731Z" fill="black"/>
<path d="M55.4004 162.698C65.4613 162.698 73.6172 154.528 73.6172 144.449C73.6172 134.37 65.4613 126.199 55.4004 126.199C45.3395 126.199 37.1836 134.37 37.1836 144.449C37.1836 154.528 45.3395 162.698 55.4004 162.698Z" fill="#008069"/>
<path d="M53.6649 152.152L48.2129 145.129L51.3835 142.659L53.9649 145.984L62.6865 136.761L65.6029 139.529L53.6649 152.152Z" fill="white"/>
</g>
<defs>
<clipPath id="clip0_2435_802">
<rect width="213" height="252" fill="white"/>
</clipPath>
</defs>
</svg>
