<svg width="281" height="195" viewBox="0 0 281 195" fill="none" xmlns="http://www.w3.org/2000/svg">
<g clip-path="url(#clip0_2435_773)">
<path d="M55.9874 195C86.9084 195 111.975 193.101 111.975 190.759C111.975 188.416 86.9084 186.518 55.9874 186.518C25.0664 186.518 0 188.416 0 190.759C0 193.101 25.0664 195 55.9874 195Z" fill="#E6E6E6"/>
<path d="M42.7959 43.2669C52.5394 39.1334 64.6751 41.7524 76.5269 43.57C76.6371 41.3688 77.974 38.6899 76.5736 37.1542C74.8723 35.2885 75.029 33.3282 76.0527 31.3566C78.6706 26.3149 74.9199 20.9502 71.1328 16.4895C70.2792 15.4864 69.2005 14.6982 67.9841 14.189C66.7678 13.6798 65.4482 13.4639 64.1325 13.5589L57.1172 14.0587C55.4101 14.1804 53.781 14.8191 52.4478 15.8894C51.1146 16.9598 50.1409 18.4107 49.6571 20.0481C47.982 22.3203 47.0854 24.5863 47.6499 26.8405C45.1409 28.5507 44.7193 30.6151 45.8468 32.9423C46.8028 34.4076 46.7927 35.834 45.8033 37.2208C44.504 38.989 43.5088 40.9605 42.8586 43.0546L42.7959 43.2669Z" fill="#2F2E41"/>
<path d="M274.342 168.575H75.7573C73.9913 168.575 72.2976 167.875 71.0489 166.629C69.8002 165.384 69.0986 163.695 69.0986 161.933C141.085 153.589 211.719 153.589 281 161.933C281 163.695 280.299 165.384 279.05 166.629C277.801 167.875 276.108 168.575 274.342 168.575Z" fill="#2F2E41"/>
<path d="M281 162.324L69.0986 161.933L93.6573 120.718L93.7748 120.522V29.6875C93.7747 28.585 93.9924 27.4932 94.4153 26.4746C94.8383 25.4559 95.4583 24.5304 96.24 23.7508C97.0216 22.9712 97.9495 22.3528 98.9708 21.9309C99.9921 21.509 101.087 21.2919 102.192 21.292H246.732C247.837 21.2919 248.932 21.509 249.953 21.9309C250.974 22.3528 251.902 22.9712 252.684 23.7508C253.465 24.5304 254.086 25.4559 254.508 26.4746C254.931 27.4932 255.149 28.585 255.149 29.6875V121.147L281 162.324Z" fill="#3F3D56"/>
<path d="M102 27.1514C101.273 27.1522 100.576 27.4406 100.062 27.9532C99.5478 28.4659 99.2586 29.161 99.2578 29.8861V112.708C99.2587 113.433 99.5478 114.128 100.062 114.641C100.576 115.154 101.273 115.442 102 115.443H248.098C248.825 115.442 249.522 115.154 250.036 114.641C250.55 114.128 250.839 113.433 250.84 112.708V29.8861C250.839 29.161 250.55 28.466 250.036 27.9533C249.522 27.4406 248.825 27.1522 248.098 27.1514H102Z" fill="white"/>
<path d="M102.613 126.382C102.388 126.382 102.168 126.447 101.979 126.568C101.79 126.688 101.639 126.861 101.545 127.064L93.9777 143.472C93.8953 143.651 93.8593 143.847 93.8729 144.043C93.8866 144.239 93.9494 144.429 94.0557 144.594C94.162 144.76 94.3083 144.896 94.4812 144.99C94.6541 145.085 94.848 145.134 95.0451 145.134H254.181C254.381 145.134 254.578 145.083 254.753 144.986C254.928 144.888 255.075 144.748 255.181 144.578C255.286 144.408 255.346 144.214 255.355 144.015C255.364 143.815 255.321 143.616 255.232 143.438L247.006 127.03C246.909 126.835 246.76 126.671 246.574 126.556C246.388 126.442 246.174 126.381 245.956 126.382H102.613Z" fill="#2F2E41"/>
<path d="M174.462 25.7846C175.435 25.7846 176.224 24.9975 176.224 24.0266C176.224 23.0556 175.435 22.2686 174.462 22.2686C173.488 22.2686 172.699 23.0556 172.699 24.0266C172.699 24.9975 173.488 25.7846 174.462 25.7846Z" fill="white"/>
<path d="M158.82 148.26C158.562 148.26 158.311 148.345 158.106 148.502C157.901 148.659 157.753 148.878 157.686 149.127L155.788 156.159C155.741 156.333 155.734 156.515 155.769 156.691C155.804 156.868 155.88 157.034 155.989 157.177C156.099 157.32 156.24 157.435 156.402 157.515C156.564 157.594 156.742 157.636 156.922 157.636H193.021C193.208 157.636 193.393 157.591 193.56 157.506C193.726 157.42 193.87 157.296 193.978 157.144C194.087 156.991 194.157 156.815 194.184 156.631C194.211 156.446 194.193 156.257 194.131 156.08L191.691 149.048C191.611 148.818 191.461 148.618 191.262 148.477C191.063 148.336 190.825 148.26 190.58 148.26H158.82Z" fill="#2F2E41"/>
<path d="M255.149 119.154V120.717H93.6572L93.7788 120.522V119.154H255.149Z" fill="#2F2E41"/>
<path d="M250.645 54.6939C265.787 54.6939 278.062 42.4502 278.062 27.3469C278.062 12.2436 265.787 0 250.645 0C235.502 0 223.227 12.2436 223.227 27.3469C223.227 42.4502 235.502 54.6939 250.645 54.6939Z" fill="#008069"/>
<path d="M262.003 39.2627H239.285C238.87 39.2623 238.472 39.0975 238.178 38.8046C237.884 38.5116 237.719 38.1143 237.719 37.7V24.0265C237.719 23.6122 237.884 23.215 238.178 22.9221C238.472 22.6291 238.87 22.4643 239.285 22.4639H262.003C262.419 22.4643 262.817 22.6291 263.111 22.9221C263.404 23.215 263.57 23.6122 263.57 24.0265V37.7C263.57 38.1143 263.404 38.5116 263.111 38.8046C262.817 39.0975 262.419 39.2623 262.003 39.2627ZM239.285 24.0266V37.7H262.004L262.003 24.0265L239.285 24.0266Z" fill="white"/>
<path d="M257.694 24.0261H243.594V17.7753C243.594 13.2479 246.559 9.96191 250.644 9.96191C254.729 9.96191 257.694 13.2479 257.694 17.7753L257.694 24.0261ZM245.16 22.4634H256.128V17.7753C256.128 14.095 253.873 11.5246 250.644 11.5246C247.415 11.5246 245.161 14.0951 245.161 17.7753L245.16 22.4634Z" fill="white"/>
<path d="M250.645 32.0345C251.51 32.0345 252.212 31.3349 252.212 30.4719C252.212 29.6088 251.51 28.9092 250.645 28.9092C249.78 28.9092 249.078 29.6088 249.078 30.4719C249.078 31.3349 249.78 32.0345 250.645 32.0345Z" fill="white"/>
<path d="M231.504 87.3508H118.594C118.039 87.3502 117.508 87.1303 117.116 86.7393C116.724 86.3483 116.504 85.8182 116.503 85.2653V57.3297C116.504 56.7767 116.724 56.2467 117.116 55.8557C117.508 55.4647 118.039 55.2448 118.594 55.2441H231.504C232.058 55.2448 232.59 55.4647 232.982 55.8557C233.374 56.2467 233.594 56.7767 233.595 57.3297V85.2653C233.594 85.8182 233.374 86.3483 232.982 86.7393C232.59 87.1303 232.058 87.3502 231.504 87.3508ZM118.594 56.0784C118.261 56.0787 117.942 56.2107 117.707 56.4453C117.472 56.6798 117.34 56.9979 117.339 57.3297V85.2653C117.34 85.5971 117.472 85.9151 117.707 86.1497C117.942 86.3843 118.261 86.5163 118.594 86.5166H231.504C231.837 86.5163 232.156 86.3843 232.391 86.1497C232.626 85.9151 232.758 85.5971 232.759 85.2653V57.3297C232.758 56.9979 232.626 56.6798 232.391 56.4452C232.156 56.2107 231.837 56.0787 231.504 56.0783L118.594 56.0784Z" fill="#E6E6E6"/>
<path d="M136.138 78.721C140.842 78.721 144.656 74.9175 144.656 70.2257C144.656 65.5339 140.842 61.7305 136.138 61.7305C131.434 61.7305 127.621 65.5339 127.621 70.2257C127.621 74.9175 131.434 78.721 136.138 78.721Z" fill="#E6E6E6"/>
<path d="M155.809 64.5615C155.623 64.5612 155.438 64.5976 155.266 64.6687C155.093 64.7397 154.936 64.8439 154.804 64.9754C154.672 65.1069 154.567 65.2631 154.496 65.4351C154.424 65.607 154.388 65.7913 154.388 65.9774C154.388 66.1635 154.424 66.3478 154.496 66.5198C154.567 66.6917 154.672 66.8479 154.804 66.9794C154.936 67.1109 155.093 67.2151 155.266 67.2861C155.438 67.3572 155.623 67.3936 155.809 67.3933H222.731C223.108 67.3933 223.469 67.2441 223.735 66.9786C224.001 66.713 224.151 66.3529 224.151 65.9774C224.151 65.6019 224.001 65.2418 223.735 64.9762C223.469 64.7107 223.108 64.5615 222.731 64.5615H155.809Z" fill="#E6E6E6"/>
<path d="M155.809 73.0576C155.433 73.0576 155.072 73.2068 154.805 73.4723C154.539 73.7378 154.39 74.098 154.39 74.4735C154.39 74.849 154.539 75.2091 154.805 75.4747C155.072 75.7402 155.433 75.8894 155.809 75.8894H184.606C184.982 75.8894 185.343 75.7402 185.61 75.4747C185.876 75.2091 186.025 74.849 186.025 74.4735C186.025 74.098 185.876 73.7378 185.61 73.4723C185.343 73.2068 184.982 73.0576 184.606 73.0576H155.809Z" fill="#E6E6E6"/>
<path d="M93.3787 73.6297L72.5064 84.6977L72.2422 75.4744C79.0548 74.3401 85.5362 72.3651 91.5293 69.1499L93.7123 63.7706C93.9501 63.1844 94.3367 62.67 94.8341 62.2779C95.3315 61.8858 95.9226 61.6294 96.5493 61.534C97.176 61.4385 97.8169 61.5073 98.4089 61.7334C99.001 61.9596 99.5239 62.3355 99.9263 62.8241C100.515 63.5391 100.809 64.4505 100.75 65.3737C100.69 66.297 100.28 67.1631 99.6044 67.7965L93.3787 73.6297Z" fill="#FFB8B8"/>
<path d="M42.3798 137.533C42.2275 136.976 42.1952 136.393 42.2849 135.822C42.3747 135.252 42.5844 134.707 42.9004 134.223L47.4855 127.205C48.57 125.545 50.234 124.346 52.1547 123.841C54.0755 123.335 56.116 123.559 57.8804 124.47C55.9534 127.741 56.222 130.611 58.5459 133.105C54.9384 134.862 51.6042 137.129 48.6467 139.837C48.1068 140.204 47.4867 140.437 46.8382 140.516C46.1896 140.596 45.5314 140.52 44.9182 140.295C44.3051 140.069 43.7548 139.701 43.3133 139.221C42.8717 138.74 42.5517 138.161 42.3798 137.533Z" fill="#2F2E41"/>
<path d="M94.3303 128.355C93.6365 129.509 92.6571 130.465 91.4861 131.132C90.3151 131.799 88.9919 132.155 87.6434 132.165L57.1833 132.395L55.8623 124.753L69.3368 120.8L57.976 112.104L70.3936 97.6104L92.9481 118.578C94.2663 119.803 95.1228 121.443 95.3744 123.222C95.626 125.002 95.2574 126.814 94.3303 128.355Z" fill="#2F2E41"/>
<path d="M52.4275 180.62H45.2939C38.889 136.83 32.3694 92.9182 51.6349 76.5283L74.3567 80.2176L71.4504 99.4548L58.7685 113.948L52.4275 180.62Z" fill="#2F2E41"/>
<path d="M58.6982 190.54C58.1398 190.692 57.5554 190.724 56.9836 190.634C56.4118 190.545 55.8654 190.336 55.3804 190.021L47.6348 188.982C45.9704 187.901 44.7682 186.241 44.2613 184.325C43.7545 182.41 43.9792 180.374 44.8918 178.614C48.1719 180.536 51.0494 180.268 53.5498 177.95C55.3166 181.508 58.2276 181.291 61.0077 184.289C61.3758 184.827 61.6096 185.446 61.6895 186.093C61.7695 186.74 61.6933 187.396 61.4674 188.008C61.2414 188.619 60.8722 189.168 60.3906 189.609C59.9089 190.049 59.3287 190.368 58.6982 190.54Z" fill="#2F2E41"/>
<path d="M69.3363 47.2778L56.126 44.1155C58.32 39.6361 58.5007 34.6519 57.447 29.3582L66.43 29.0947C66.7115 35.6776 67.563 41.8276 69.3363 47.2778Z" fill="#FFB8B8"/>
<path d="M72.9672 88.1523C63.3506 94.6884 56.5557 88.3759 51.3705 78.6367C52.091 72.6771 50.9243 65.5453 48.7636 57.796C47.8027 54.3781 48.1614 50.725 49.7691 47.5579C51.3767 44.3909 54.1164 41.9401 57.4472 40.6895L68.8081 45.4329C78.4548 53.2757 80.3535 61.771 76.7343 70.731L72.9672 88.1523Z" fill="#008069"/>
<path d="M45.2938 53.8659L34.7255 59.3999L53.4842 70.4678L56.0944 76.8896C56.2686 77.3182 56.3534 77.7777 56.3438 78.2401C56.3341 78.7025 56.2302 79.1581 56.0382 79.5791C55.8463 80.0001 55.5704 80.3777 55.2273 80.6889C54.8843 81.0001 54.4813 81.2383 54.0429 81.3891C53.5446 81.5604 53.0133 81.6144 52.4906 81.5468C51.9679 81.4792 51.4679 81.2918 51.0299 80.9993C50.5919 80.7068 50.2278 80.3172 49.966 79.8609C49.7042 79.4046 49.5518 78.894 49.5209 78.3692L49.2569 73.8936L25.4148 66.0461C24.6115 65.7817 23.8791 65.3385 23.273 64.7499C22.6669 64.1614 22.203 63.443 21.9165 62.6491C21.4988 61.492 21.4776 60.2294 21.856 59.0589C22.2345 57.8884 22.9913 56.8761 24.0081 56.1804L43.1802 43.0615L45.2938 53.8659Z" fill="#FFB8B8"/>
<path d="M55.8619 54.9199C51.4543 52.9933 47.4463 55.0862 42.3873 56.7645L41.5947 42.7979C46.618 40.1274 51.4074 39.4074 55.8619 41.4803L55.8619 54.9199Z" fill="#008069"/>
<path d="M61.1345 36.0134C65.7926 36.0134 69.5688 32.247 69.5688 27.6009C69.5688 22.9549 65.7926 19.1885 61.1345 19.1885C56.4764 19.1885 52.7002 22.9549 52.7002 27.6009C52.7002 32.247 56.4764 36.0134 61.1345 36.0134Z" fill="#FFB8B8"/>
<path d="M71.2249 26.5388C62.8742 27.3545 56.5111 25.9923 52.4443 22.1138V18.9902H70.5162L71.2249 26.5388Z" fill="#2F2E41"/>
</g>
<defs>
<clipPath id="clip0_2435_773">
<rect width="281" height="195" fill="white"/>
</clipPath>
</defs>
</svg>
